<?xml version="1.0" encoding="utf-8"?>
<!-- Generator: Adobe Illustrator 15.1.0, SVG Export Plug-In . SVG Version: 6.00 Build 0)  -->
<!DOCTYPE svg PUBLIC "-//W3C//DTD SVG 1.1//EN" "http://www.w3.org/Graphics/SVG/1.1/DTD/svg11.dtd">
<svg version="1.1" id="Layer_1" xmlns="http://www.w3.org/2000/svg" xmlns:xlink="http://www.w3.org/1999/xlink" x="0px" y="0px"
	 width="1760.347px" height="1015.723px" viewBox="0 0 1760.347 1015.723" enable-background="new 0 0 1760.347 1015.723"
	 xml:space="preserve">
<g>
	<path fill="#6C6B6B" d="M118.274,886.889H63.811v-73.496H0v198.479h63.811V941.35h54.463v70.521h63.813V813.393h-63.813V886.889
		L118.274,886.889z M710.741,886.889H656.28v-73.496h-63.813v198.479h63.813V941.35h54.461v70.521h63.922V813.393h-63.922V886.889
		L710.741,886.889z M1685.315,871.374h-30.586v-57.981h-63.926v198.479h94.512l3.852-0.108l3.744-0.221l3.736-0.329l3.738-0.438
		l3.629-0.556l3.525-0.77l3.52-0.77l3.408-0.992l3.301-1.101l3.193-1.208l3.189-1.433l2.971-1.429l2.971-1.651l2.861-1.652
		l2.75-1.867l2.641-1.979l2.422-2.092l2.42-2.093l2.201-2.307l2.088-2.531l1.98-2.53l1.764-2.642l1.645-2.75l1.543-2.86l1.318-2.971
		l1.213-3.08l0.988-3.304l0.879-3.302l0.662-3.408l0.438-3.521l0.33-3.629l0.109-3.742v-13.974l-0.109-3.739l-0.33-3.634
		l-0.438-3.629l-0.662-3.409l-0.879-3.306l-0.988-3.188l-1.213-3.08l-1.318-3.08l-1.543-2.859l-1.645-2.751l-1.764-2.642
		l-1.98-2.529l-2.088-2.418l-2.201-2.312l-2.42-2.2l-2.422-2.093l-2.641-1.981l-2.75-1.758l-2.861-1.762l-2.971-1.646l-2.971-1.434
		l-3.189-1.318l-3.193-1.213l-3.301-1.099l-3.408-0.993l-3.52-0.878l-3.525-0.659l-3.629-0.658l-3.738-0.443l-3.736-0.329
		l-3.744-0.22L1685.315,871.374L1685.315,871.374z M1678.711,962.91h-23.982v-43.239h21.342h1.652l1.652,0.114l1.428,0.22
		l1.434,0.22l1.316,0.33l1.322,0.439l1.209,0.438l1.1,0.444l1.104,0.545l0.988,0.554l0.883,0.659l0.879,0.658l0.77,0.772l0.77,0.658
		l0.773,0.771l0.549,0.884l1.209,1.646l0.885,1.763l0.77,1.866l0.549,1.764l0.438,1.872l0.33,1.757l0.109,1.763l0.109,1.646
		l-0.109,1.65l-0.109,1.543l-0.221,1.537l-0.219,1.323l-0.33,1.316l-0.439,1.213l-0.438,1.209l-0.549,1.104l-0.555,0.988
		l-0.658,0.988l-0.66,0.879l-0.658,0.884l-0.662,0.77l-0.77,0.772l-0.771,0.658l-0.883,0.55l-1.539,1.1l-1.65,0.884l-1.646,0.77
		l-1.543,0.549l-1.537,0.33l-1.434,0.33l-1.209,0.108L1678.711,962.91L1678.711,962.91z M1273.942,936.507h71.953v-47.196h-71.953
		v-24.098h78.447v-51.82h-142.26v198.479h148.09v-51.82h-84.277V936.507L1273.942,936.507z M1194.834,813.393h-68.982
		l-33.773,75.031h-15.734v-75.031h-63.814v198.479h63.814V941.35h15.734l34.322,70.521h73.389l-54.135-100.117L1194.834,813.393
		L1194.834,813.393z M310.153,810.203h-31.246l-3.854,0.109l-3.85,0.22l-3.742,0.438l-3.629,0.552l-3.633,0.771l-3.631,0.878
		l-3.41,1.101l-3.408,1.213l-3.412,1.428l-3.191,1.543l-3.189,1.652l-2.971,1.757l-2.971,1.979l-2.859,2.087l-2.75,2.313
		l-2.531,2.421l-2.531,2.421l-2.418,2.641l-2.201,2.86l-2.09,2.86l-1.98,3.08l-1.76,3.085l-1.648,3.295l-1.543,3.414l-1.318,3.52
		l-1.209,3.524l-0.992,3.738l-0.881,3.85l-0.658,3.959l-0.441,4.072l-0.33,4.074l-0.109,4.287v55.341l0.109,4.293l0.33,4.066
		l0.441,4.073l0.658,3.959l0.881,3.85l0.992,3.743l1.209,3.521l1.318,3.519l1.543,3.416l1.648,3.301l1.76,3.08l1.98,3.08l2.09,2.859
		l2.201,2.75l2.418,2.642l2.531,2.53l2.531,2.422l2.75,2.199l2.859,2.094l2.971,1.977l2.971,1.872l3.189,1.652l3.191,1.538
		l3.412,1.316l3.408,1.213l3.41,1.1l3.631,0.884l3.633,0.771l3.629,0.549l3.742,0.443l3.85,0.221l3.854,0.104h31.246l3.85-0.104
		l3.742-0.221l3.738-0.443l3.74-0.549l3.631-0.771l3.521-0.884l3.52-1.1l3.412-1.213l3.301-1.429l3.191-1.542l3.189-1.646
		l3.08-1.871l2.859-1.867l2.861-2.201l2.75-2.2l2.641-2.423l2.42-2.53l2.422-2.641l2.199-2.751l2.09-2.86l1.98-3.08l1.869-3.08
		l1.65-3.3l1.43-3.409l1.432-3.522l1.102-3.521l1.1-3.737l0.77-3.854l0.662-3.959l0.549-3.964l0.219-4.179l0.111-4.185v-55.342
		l-0.111-4.508l-0.219-4.293l-0.549-4.179l-0.662-4.073l-0.77-3.959l-1.1-3.854l-1.102-3.629l-1.432-3.521l-1.43-3.414l-1.65-3.301
		l-1.869-3.188l-1.98-2.972l-2.09-2.971l-2.199-2.75l-2.422-2.531l-2.42-2.528l-2.641-2.313l-2.75-2.201l-2.861-1.98l-2.859-1.867
		l-3.08-1.762l-3.189-1.652l-3.191-1.428l-3.301-1.322l-3.412-1.099l-3.52-1.101l-3.521-0.772l-3.631-0.77l-3.74-0.55l-3.738-0.329
		l-3.742-0.221L310.153,810.203L310.153,810.203z M321.045,945.089v1.208l-0.113,1.213l-0.109,1.208l-0.221,1.208l-0.219,1.104
		l-0.33,1.104l-0.439,1.101l-0.439,1.099l-0.439,1.099l-0.551,0.992l-0.549,0.989l-0.662,0.992l-1.316,1.866l-1.543,1.651
		l-1.76,1.652l-1.76,1.317l-0.992,0.659l-0.988,0.554l-1.1,0.55l-0.99,0.438l-1.102,0.439l-1.102,0.329l-1.102,0.33l-1.209,0.329
		l-1.209,0.22l-1.102,0.114l-1.209,0.104h-1.32h-5.391h-1.211l-1.211-0.104l-1.207-0.114l-1.211-0.22l-1.102-0.329l-1.102-0.33
		l-1.209-0.329l-0.99-0.439l-1.1-0.438l-0.992-0.55l-0.99-0.554l-0.99-0.659l-1.869-1.317l-1.65-1.652l-1.541-1.651l-1.43-1.866
		l-0.66-0.992l-0.549-0.989l-0.553-0.992l-0.438-1.099l-0.439-1.099l-0.33-1.101l-0.332-1.104l-0.328-1.104l-0.221-1.208
		l-0.109-1.208l-0.111-1.213v-1.208v-64.252v-1.321l0.111-1.207l0.109-1.104l0.221-1.209l0.328-1.213l0.332-1.098l0.33-1.101
		l0.439-1.104l0.438-0.988l0.553-1.104l0.549-0.987l0.66-0.994l1.43-1.757l1.541-1.764l1.65-1.537l1.869-1.434l0.99-0.549
		l0.99-0.551l0.992-0.55l1.1-0.554l0.99-0.439l1.209-0.327l1.102-0.33l1.102-0.222l1.211-0.22l1.207-0.22h1.211l1.211-0.109h5.391
		l1.32,0.109h1.209l1.102,0.22l1.209,0.22l1.209,0.222l1.102,0.33l1.102,0.327l1.102,0.439l0.99,0.554l1.1,0.55l0.988,0.551
		l0.992,0.549l1.76,1.434l1.76,1.537l1.543,1.764l1.316,1.757l0.662,0.994l0.549,0.987l0.551,1.104l0.439,0.988l0.439,1.104
		l0.439,1.101l0.33,1.098l0.219,1.213l0.221,1.209l0.109,1.104l0.113,1.207v1.321V945.089L321.045,945.089z M1405.309,918.463v5.393
		l-0.33,4.73l-0.219,2.201l-0.221,2.092l-0.334,1.979l-0.33,1.762l-0.328,1.762l-0.33,1.647l-0.551,1.428l-0.438,1.436l-0.549,1.315
		l-0.555,1.323l-0.551,1.103l-0.658,1.101l-0.658,0.988l-0.658,0.883l-0.664,0.879l-0.77,0.879l-1.652,1.433l-1.646,1.317
		l-1.873,1.099l-1.871,1.104l-1.977,0.988l-2.201,0.991l-0.994,0.33l-1.207,0.329l-1.316,0.329l-1.436,0.222l-3.08,0.327
		l-2.969,0.222h-2.861h-2.313h-1.65h-0.551v51.819h24.977l4.951-0.107l4.73-0.33l4.508-0.438l4.404-0.658l4.184-0.772l3.959-1.099
		l3.85-1.213l3.635-1.43l3.408-1.541l3.301-1.759l3.08-2.092l2.971-2.201l2.75-2.312l2.643-2.643l2.42-2.751l2.313-3.079
		l2.092-3.189l1.979-3.408l1.871-3.635l1.652-3.851l1.537-3.958l1.322-4.293l1.316-4.508l1.104-4.623l0.988-4.952l0.879-5.062
		l0.773-5.393l0.549-5.501l0.438-5.831l0.439-5.939l0.221-6.271l0.107-6.493l0.109-5.832v-5.938v-5.83l-0.109-5.722V881.5v-5.502
		v-5.502v-5.279h35.867v146.656h63.816V813.395h-161.295L1405.309,918.463L1405.309,918.463z M501.258,813.393H406.86v198.479
		h63.814v-48.736h30.584h3.852l3.854-0.225l3.74-0.329l3.633-0.439l3.629-0.659l3.631-0.656l3.41-0.885l3.412-0.987l3.299-1.101
		l3.301-1.213l3.082-1.318l3.08-1.541l2.971-1.543l2.859-1.758l2.641-1.762l2.643-1.982l2.529-2.086l2.311-2.199l2.311-2.313
		l2.092-2.421l1.869-2.531l1.871-2.641l1.652-2.75l1.539-2.971l1.32-2.971l1.211-3.08l0.986-3.189l0.881-3.3l0.658-3.524l0.443-3.52
		l0.33-3.629l0.109-3.738v-23.107l-0.109-3.737l-0.33-3.636l-0.443-3.629l-0.658-3.408l-0.881-3.301l-0.986-3.188l-1.211-3.085
		l-1.32-2.971l-1.539-2.971l-1.652-2.752l-1.871-2.641l-1.869-2.531l-2.092-2.421l-2.311-2.311l-2.311-2.197l-2.529-2.091
		l-2.643-1.982l-2.641-1.762l-2.859-1.758l-2.971-1.652l-3.08-1.428l-3.082-1.322l-3.301-1.208l-3.299-1.104l-3.412-0.986
		l-3.41-0.878l-3.631-0.771l-3.629-0.554l-3.633-0.439l-3.74-0.327l-3.854-0.222L501.258,813.393L501.258,813.393z M514.243,893.598
		v1.434l-0.223,1.538l-0.219,1.652l-0.441,1.757l-0.549,1.763l-0.66,1.763l-0.881,1.758l-1.1,1.65l-0.662,0.771l-0.66,0.77
		l-0.768,0.773l-0.881,0.77l-0.883,0.658l-0.879,0.664l-0.99,0.658l-1.102,0.55l-1.102,0.439l-1.209,0.438l-1.32,0.444l-1.32,0.325
		l-1.43,0.225l-1.541,0.22l-1.648,0.109h-1.65H470.67v-52.479h24.096l1.322,0.108l1.32,0.22l1.539,0.33l1.541,0.438l1.648,0.659
		l1.648,0.772l1.543,0.988l1.648,1.104l1.432,1.316l1.43,1.434l0.549,0.879l0.662,0.879l0.551,0.877l0.549,0.994l0.439,0.988
		l0.439,1.104l0.33,1.207l0.332,1.1l0.219,1.323l0.219,1.316l0.111,1.323v1.428v10.563h0.004V893.598z M863.012,913.95V813.393
		H802.5v198.479h56.107l65.574-99.788v99.788h60.4V813.393h-56.107L863.012,913.95L863.012,913.95z"/>
	<polygon fill="#2363A2" points="714.26,394.43 1011.872,595.221 1011.872,200.79 714.26,0 	"/>
	<polygon fill="#2C85C6" points="714.26,0 698.967,0.443 683.786,1.543 668.932,3.412 654.299,6.053 639.885,9.352 625.694,13.423 
		611.942,18.046 598.409,23.438 585.208,29.378 572.333,35.977 559.901,43.13 547.797,50.833 536.137,59.195 524.915,67.995 
		514.133,77.346 503.79,87.139 493.999,97.483 484.536,108.264 475.735,119.598 467.483,131.257 459.67,143.248 452.52,155.793 
		446.028,168.555 439.977,181.755 434.696,195.289 429.967,209.152 426.006,223.237 422.704,237.649 420.065,252.282 
		418.192,267.132 416.983,282.319 416.653,297.612 416.983,312.904 418.192,328.086 420.065,342.941 422.704,357.572 
		426.006,371.986 429.967,386.068 434.696,399.93 439.977,413.463 446.028,426.664 452.52,439.43 459.67,451.971 467.483,463.963 
		475.735,475.625 484.536,486.848 493.999,497.74 503.79,508.082 514.133,517.871 524.915,527.227 536.137,536.028 547.797,544.389 
		559.901,552.09 572.333,559.244 585.208,565.843 598.409,571.784 611.942,577.175 625.694,581.797 639.885,585.866 
		654.299,589.166 668.932,591.811 683.786,593.68 698.967,594.781 714.26,595.221 	"/>
	<polygon fill="#2C85C6" points="1011.872,595.221 1027.161,594.781 1042.237,593.68 1057.198,591.811 1071.834,589.166 
		1086.247,585.866 1100.329,581.797 1114.19,577.175 1127.614,571.784 1140.817,565.843 1153.686,559.244 1166.122,552.09 
		1178.221,544.389 1189.887,536.028 1201.11,527.227 1211.891,517.871 1222.231,508.082 1232.135,497.74 1241.485,486.848 
		1250.29,475.625 1258.542,463.963 1266.348,451.862 1273.502,439.43 1280.102,426.664 1286.047,413.463 1291.329,399.93 
		1296.055,386.068 1300.02,371.986 1303.319,357.572 1305.959,342.941 1307.833,327.977 1309.04,312.904 1309.37,297.612 
		1309.04,282.319 1307.833,267.132 1305.959,252.282 1303.319,237.649 1300.02,223.237 1296.055,209.152 1291.329,195.289 
		1286.047,181.755 1280.102,168.555 1273.502,155.793 1266.348,143.248 1258.542,131.257 1250.29,119.598 1241.485,108.264 
		1232.135,97.483 1222.231,87.139 1211.891,77.346 1201.11,67.995 1189.887,59.085 1178.221,50.833 1166.122,43.13 1153.686,35.867 
		1140.817,29.378 1127.614,23.438 1114.19,18.046 1100.329,13.423 1086.247,9.352 1071.834,6.053 1057.198,3.412 1042.237,1.543 
		1027.161,0.443 1011.872,0 	"/>
</g>
</svg>
